<svg xmlns="http://www.w3.org/2000/svg" viewBox="0 0 6328.07 1531.66"><title>TWA-logo</title><path d="M5330.34 1157.03l-19.21 100.31h-51.22l95.32-497.93h80.39l95.31 497.93h-55.48l-19.2-100.31zm7.11-47.65h111l-56.2-287.39zm347.64-349.97q59 0 85 29.16t26 84.64v40.54q0 41.26-14.94 66.88t-46.95 35.57q34.14 10 48.37 36.63t14.23 67.21v77.53q0 16.38 1.42 31.66a70.36 70.36 0 0 0 8.55 28.11h-56.2a90.17 90.17 0 0 1-7.12-23.12q-2.15-12.45-2.14-37.35v-78.25q0-41.94-18.85-58t-53.7-16h-39.12v212.7h-55.49V759.41zm-14.23 234.73q33.43 0 51.93-13.87t18.49-54.42V878.2q0-34.17-13.15-51.22t-44.47-17.07h-54v184.23zm254.38 263.2V809.91h-91.76v-50.5h239v50.5h-91.77v447.43zm291.1-502.92q56.9 0 83.94 33.79t27 90.69v13.51h-52.64v-16.34q0-34.17-13.52-52.64t-43.39-18.51q-29.9 0-43.4 18.51t-13.52 51.92q0 27.72 12.46 48.36a178.82 178.82 0 0 0 30.94 38.07q18.51 17.43 40.18 34.14a326 326 0 0 1 40.21 36.63 189.2 189.2 0 0 1 30.94 45.17q12.42 25.27 12.46 60.11 0 56.91-27.39 90.7t-85 33.78q-57.61 0-84.64-33.78t-27-90.7v-28.45h51.91v31.3q0 34.14 14.24 52.64t44.09 18.48q29.9 0 44.1-18.48t14.23-52.64q0-27.75-12.46-48a183.5 183.5 0 0 0-30.94-37.69q-18.49-17.42-39.82-34.15a342.63 342.63 0 0 1-39.84-36.63 187.72 187.72 0 0 1-30.95-45.18q-12.45-25.23-12.43-60.1 0-57.62 27-91.05t83.24-33.46zM5135.08 951.04c6.84.16 11.56-1.44 11.56-8.89 0-8.26-8.73-7.62-14.58-7.62h-13.72v16.51zm21.39 34.78h-14.55l-13.52-25.59h-10v25.59h-12.69v-60.66h29.23c15.87 0 23.5 4.3 23.5 18.56 0 11.13-5.87 15.73-16.5 16.51l14.55 25.59zm13.49-30.67c0-24.92-17.28-42.71-41.24-42.71-24.44 0-41.27 17.79-41.27 42.71 0 25.27 16.83 42.88 41.27 42.88 23.96 0 41.24-17.61 41.24-42.88zm-97.28 0a56 56 0 1 1 56 56.23 55.88 55.88 0 0 1-56-56.23M1552.45 843.88h-129.27v413.39h-99.84V843.88h-129.25v-84.47h358.36v84.47m132.47 92.15c30.08-25 67.19-44.81 106.88-44.81 39 0 94.06 23.7 94.06 112v254.06h-94.73v-215.66c0-28.8 1.94-74.23-39-74.23-27.52 0-49.29 19.84-67.19 39v250.83h-94.7V759.41h94.7v176.62m457.53 142.07c0-44.81-9-117.1-60.15-117.1s-60.16 72.29-60.16 117.1 8.95 117.1 60.16 117.1 60.15-72.31 60.15-117.1zm-217.57 0c0-95.35 52.47-186.88 157.42-186.88s157.41 91.53 157.41 186.88c0 94.69-53.1 186.85-157.41 186.85s-157.42-92.16-157.42-186.85m557.38 142.05c-30.11 25-67.21 44.8-106.88 44.8-39 0-94.08-23.68-94.08-112V898.9h94.72v215.67c0 28.8-1.92 74.23 39 74.23 27.54 0 49.28-19.84 67.21-39V898.9h94.69v358.37h-94.69v-37.12m284.78-140.79c39.69 0 51.2-32.62 51.2-66.54 0-32.64-15.36-60.16-51.2-60.16-39.64 0-51.82 33.29-51.82 67.22 0 32.63 15.35 59.48 51.82 59.48zm-65.26 178.57c-8.95 5.75-14.72 10.86-14.72 22.4 0 33.27 67.21 35.17 89.59 35.17 16 0 99.18-1.9 99.18-30.71 0-18.57-12.79-16.62-69.1-19.84zm30.05-118.41c-10.87 0-26.87 5.77-26.87 22.41 0 46.71 248.31-34.54 248.31 105.59 0 53.11-35.84 109.42-177.9 109.42-123.51 0-165.75-43.52-165.75-90.24 0-27.52 17.29-41.59 39.06-54.38-15.36-11.54-28.19-25-28.19-45.44 0-35.21 19.21-53.76 46.72-71.67-26.23-25.61-44.79-57.6-44.79-98.54 0-79.37 67.21-125.45 144.62-125.45 31.38 0 61.46 9 88.33 25 19.18-17.91 36.47-29.42 64.62-29.42a133.19 133.19 0 0 1 27.51 2.55v66.57c-9.56-3.85-19.82-7.7-30.07-7.7s-16.62 3.21-25.59 7.7c10.23 19.17 18.56 40.3 19.2 60.79 0 79.34-66.54 125.41-144 125.41l-35.21-2.56m351.34-203.53c30.11-25 67.21-44.81 106.88-44.81 39 0 94.08 23.7 94.08 112v254.06h-94.72v-215.66c0-28.8 1.92-74.23-39-74.23-27.51 0-49.28 19.84-67.21 39v250.83h-94.69V759.41h94.69v176.62m373.06-37.13h73.59v78.72h-73.59v182.39c0 17.28 5.1 35.19 35.82 35.19 16 0 26.26-6.4 37.77-13.45v72.33c-19.84 5.77-40.33 10.87-60.79 10.87-58.88 0-107.49-33.27-107.49-111.34v-176h-44.16v-78.72h44.16v-89.57h94.69v89.57m467.81 358.38h-51.21l-84.49-407h-1.28l-88.95 407h-51.18l-104.31-497.86h49.9l81.92 401.88h1.28l89.6-401.88h49.25l85.14 401.88h1.25l87.67-401.88h49.31l-113.9 497.86m325.06-176.62c0-60.16-14.72-144.62-91.52-144.62s-91.51 84.46-91.51 144.62 14.74 144.62 91.51 144.62 91.52-84.47 91.52-144.62zm-233 0c0-132.47 62.75-186.85 141.44-186.85S4299 948.18 4299 1080.65s-62.72 186.87-141.44 186.87-141.44-54.41-141.44-186.87m371.85-100.47h1.31c19.82-42.23 45.41-81.28 97.9-81.28h19.16v45.45c-65.28-9-99.18 61.42-118.41 112.63v200.29h-49.89V904.03h49.93v76.15m208.65 87.67l131.15-163.82h55.7l-97.29 121 112 232.29h-53.75l-90.23-192-57.56 71v121h-49.93V759.41h49.93v308.44m417.83-85.1c-19.82-29.44-43.51-46.72-80.64-46.72-32.62 0-63.34 16.63-63.34 52.46 0 86.39 186.22 48.67 186.22 167.67 0 69.11-49.29 111.36-115.83 111.36-56.95 0-103.05-24.94-131.82-74.24l39.66-25c19.24 36.45 49.93 56.94 92.16 56.94 36.46 0 69.1-19.82 69.1-60.16 0-88.92-186.2-46.71-186.2-173.39 0-60.81 49.92-97.92 108.15-97.92 49.29 0 90.24 20.46 117.72 61.43l-35.18 27.57"/><path fill="#ab2159" d="M1035.04 293.2v608.38L810.7 1031.2l.05-107.93-245.76-141.79V564.81l470.05-271.61z"/><path fill="#fa2a13" d="M810.75 923.27l-.05 107.93-245.71 141.94V781.48l245.76 141.79z"/><path fill="#f1aa1e" d="M810.7 1031.2l-.22 500.46-470.5-271.61v-152.58l187.39-108.01-.18-239.77 37.8 21.79v391.66L810.7 1031.2z"/><path fill="#98cf11" d="M527.19 759.69l.18 239.77-187.39 108.01V804.52l130.43 75.32V726.9l56.78 32.79z"/><path fill="#4eb448" d="M526.88 390.99l.31 368.7-56.78-32.79V423.6l56.47-32.61z"/><path fill="#33e418" d="M470.41 726.9v152.94l-130.43-75.32V651.67l130.43 75.23z"/><path fill="#00d570" d="M470.41 423.6v303.3l-130.43-75.23v152.85L75.28 651.67 470.41 423.6z"/><path fill="#04b0c1" d="M470.41 271.47V423.6L75.28 651.67 0 608.24.5 0l469.91 271.47z"/><path fill="#4eb448" d="M339.98 804.52v302.95L56.47 1270.92V662.54l18.81-10.87 264.7 152.85z"/><g fill="#fff"><path d="M771.89 1019.54a8.56 8.56 0 1 1 8.56-8.56 8.57 8.57 0 0 1-8.56 8.56zM771.89 1003.36a7.62 7.62 0 1 1-7.62 7.62 7.62 7.62 0 0 1 7.62-7.62m0-1.88a9.5 9.5 0 1 0 9.5 9.5 9.52 9.52 0 0 0-9.5-9.5zm0-47.28a8.56 8.56 0 1 1 8.56-8.56 8.57 8.57 0 0 1-8.56 8.56zM771.89 938.02a7.62 7.62 0 1 1-7.62 7.62 7.62 7.62 0 0 1 7.62-7.62m0-1.88a9.5 9.5 0 1 0 9.5 9.5 9.52 9.52 0 0 0-9.5-9.5zm0-50.46a5.37 5.37 0 1 1 5.36-5.37 5.38 5.38 0 0 1-5.36 5.37zm0-65.34a5.37 5.37 0 1 1 5.36-5.37 5.38 5.38 0 0 1-5.36 5.37zm0-65.34a5.36 5.36 0 1 1 5.36-5.36 5.37 5.37 0 0 1-5.36 5.36zm0-65.33a5.37 5.37 0 1 1 5.36-5.36 5.38 5.38 0 0 1-5.36 5.36zm0-65.34a5.37 5.37 0 1 1 5.36-5.36 5.37 5.37 0 0 1-5.36 5.36zm0-65.33a5.37 5.37 0 1 1 5.36-5.37 5.38 5.38 0 0 1-5.36 5.37zm0-65.33a5.37 5.37 0 1 1 5.36-5.37 5.38 5.38 0 0 1-5.36 5.37zm-56.55 558.54a8.57 8.57 0 1 1 8.56-8.57 8.57 8.57 0 0 1-8.56 8.57zM715.34 1036.02a7.63 7.63 0 1 1-7.62 7.62 7.62 7.62 0 0 1 7.62-7.62m0-1.88a9.51 9.51 0 1 0 9.5 9.5 9.51 9.51 0 0 0-9.5-9.5zm0-47.26a8.57 8.57 0 1 1 8.56-8.56 8.57 8.57 0 0 1-8.56 8.56zM715.34 970.69a7.63 7.63 0 1 1-7.62 7.63 7.63 7.63 0 0 1 7.62-7.63m0-1.88a9.51 9.51 0 1 0 9.5 9.51 9.51 9.51 0 0 0-9.5-9.51zm0-47.27a8.57 8.57 0 1 1 8.56-8.56 8.57 8.57 0 0 1-8.56 8.56zM715.34 905.35a7.63 7.63 0 1 1-7.62 7.63 7.63 7.63 0 0 1 7.62-7.63m0-1.88a9.51 9.51 0 1 0 9.5 9.51 9.52 9.52 0 0 0-9.5-9.51zm0-50.46a5.37 5.37 0 1 1 5.36-5.37 5.38 5.38 0 0 1-5.36 5.37zm0-65.34a5.36 5.36 0 1 1 5.36-5.36 5.37 5.37 0 0 1-5.36 5.36zm0-65.33a5.37 5.37 0 1 1 5.36-5.37 5.38 5.38 0 0 1-5.36 5.37zm0-65.33a5.37 5.37 0 1 1 5.36-5.37 5.38 5.38 0 0 1-5.36 5.37zm0-65.34a5.37 5.37 0 1 1 5.36-5.37 5.38 5.38 0 0 1-5.36 5.37zm0-65.34a5.37 5.37 0 1 1 5.36-5.36 5.37 5.37 0 0 1-5.36 5.36zm169.71 424.68a5.37 5.37 0 1 1 5.37-5.37 5.37 5.37 0 0 1-5.37 5.37zm0-65.33a5.37 5.37 0 1 1 5.37-5.37 5.37 5.37 0 0 1-5.37 5.37zm0-65.34a5.37 5.37 0 1 1 5.37-5.37 5.37 5.37 0 0 1-5.37 5.37zm0-65.34a5.36 5.36 0 1 1 5.37-5.36 5.36 5.36 0 0 1-5.37 5.36zm0-65.33a5.37 5.37 0 1 1 5.37-5.36 5.37 5.37 0 0 1-5.37 5.36zm0-65.34a5.37 5.37 0 1 1 5.37-5.36 5.36 5.36 0 0 1-5.37 5.36zm0-65.33a5.37 5.37 0 1 1 5.37-5.37 5.37 5.37 0 0 1-5.37 5.37zm0-65.33a5.37 5.37 0 1 1 5.37-5.37 5.37 5.37 0 0 1-5.37 5.37zm0-65.34a5.37 5.37 0 1 1 5.37-5.36 5.36 5.36 0 0 1-5.37 5.36zm-56.58 555.35a5.37 5.37 0 1 1 5.37-5.36 5.37 5.37 0 0 1-5.37 5.36zm0-65.34a5.37 5.37 0 1 1 5.37-5.36 5.36 5.36 0 0 1-5.37 5.36zm0-65.33a5.37 5.37 0 1 1 5.37-5.37 5.37 5.37 0 0 1-5.37 5.37zm0-65.34a5.36 5.36 0 1 1 5.37-5.36 5.36 5.36 0 0 1-5.37 5.36zm0-65.33a5.37 5.37 0 1 1 5.37-5.37 5.37 5.37 0 0 1-5.37 5.37zm0-65.33a5.37 5.37 0 1 1 5.37-5.37 5.37 5.37 0 0 1-5.37 5.37zm0-65.34a5.37 5.37 0 1 1 5.37-5.37 5.37 5.37 0 0 1-5.37 5.37zm0-65.34a5.37 5.37 0 1 1 5.37-5.36 5.36 5.36 0 0 1-5.37 5.36zm0-65.33a5.37 5.37 0 1 1 5.37-5.36 5.37 5.37 0 0 1-5.37 5.36zm169.75 424.68a5.37 5.37 0 1 1 5.37-5.37 5.38 5.38 0 0 1-5.37 5.37zm0-65.34a5.37 5.37 0 1 1 5.37-5.37 5.38 5.38 0 0 1-5.37 5.37zm0-65.34a5.36 5.36 0 1 1 5.37-5.36 5.37 5.37 0 0 1-5.37 5.36zm0-65.33a5.37 5.37 0 1 1 5.37-5.36 5.38 5.38 0 0 1-5.37 5.36zm0-65.34a5.37 5.37 0 1 1 5.37-5.36 5.37 5.37 0 0 1-5.37 5.36zm0-65.33a5.37 5.37 0 1 1 5.37-5.37 5.38 5.38 0 0 1-5.37 5.37zm0-65.33a5.37 5.37 0 1 1 5.37-5.37 5.38 5.38 0 0 1-5.37 5.37z"/><circle cx="998.22" cy="422.97" r="5.37"/><circle cx="998.22" cy="357.63" r="5.37"/><path d="M941.63 918.34a5.37 5.37 0 1 1 5.37-5.36 5.37 5.37 0 0 1-5.37 5.36zm0-65.33a5.37 5.37 0 1 1 5.37-5.37 5.38 5.38 0 0 1-5.37 5.37zm0-65.34a5.36 5.36 0 1 1 5.37-5.36 5.37 5.37 0 0 1-5.37 5.36zm0-65.33a5.37 5.37 0 1 1 5.37-5.37 5.38 5.38 0 0 1-5.37 5.37zm0-65.33a5.37 5.37 0 1 1 5.37-5.37 5.38 5.38 0 0 1-5.37 5.37zm0-65.34a5.37 5.37 0 1 1 5.37-5.37 5.38 5.38 0 0 1-5.37 5.37zm0-65.34a5.37 5.37 0 1 1 5.37-5.36 5.37 5.37 0 0 1-5.37 5.36zm0-65.33a5.37 5.37 0 1 1 5.37-5.36 5.37 5.37 0 0 1-5.37 5.36zm0-65.34a5.37 5.37 0 1 1 5.37-5.36 5.37 5.37 0 0 1-5.37 5.36zM432.4 1019.54a8.56 8.56 0 1 1 8.56-8.56 8.57 8.57 0 0 1-8.56 8.56zM432.4 1003.36a7.62 7.62 0 1 1-7.62 7.62 7.62 7.62 0 0 1 7.62-7.62m0-1.88a9.5 9.5 0 1 0 9.5 9.5 9.51 9.51 0 0 0-9.5-9.5zm0-47.28a8.56 8.56 0 1 1 8.56-8.56 8.57 8.57 0 0 1-8.56 8.56zM432.4 938.02a7.62 7.62 0 1 1-7.62 7.62 7.62 7.62 0 0 1 7.62-7.62m0-1.88a9.5 9.5 0 1 0 9.5 9.5 9.51 9.51 0 0 0-9.5-9.5zm0-47.26a8.57 8.57 0 1 1 8.56-8.57 8.58 8.58 0 0 1-8.56 8.57zM432.4 872.69a7.63 7.63 0 1 1-7.62 7.62 7.62 7.62 0 0 1 7.62-7.62m0-1.88a9.51 9.51 0 1 0 9.5 9.5 9.51 9.51 0 0 0-9.5-9.5zm0-47.27a8.57 8.57 0 1 1 8.56-8.57 8.57 8.57 0 0 1-8.56 8.57zM432.4 807.35a7.63 7.63 0 1 1-7.62 7.62 7.62 7.62 0 0 1 7.62-7.62m0-1.88a9.51 9.51 0 1 0 9.5 9.5 9.51 9.51 0 0 0-9.5-9.5zm0-47.27a8.56 8.56 0 1 1 8.56-8.56 8.57 8.57 0 0 1-8.56 8.56zM432.4 742.02a7.62 7.62 0 1 1-7.62 7.62 7.62 7.62 0 0 1 7.62-7.62m0-1.88a9.5 9.5 0 1 0 9.5 9.5 9.51 9.51 0 0 0-9.5-9.5zm0-47.27a8.57 8.57 0 1 1 8.56-8.56 8.57 8.57 0 0 1-8.56 8.56zM432.4 676.68a7.63 7.63 0 1 1-7.62 7.63 7.63 7.63 0 0 1 7.62-7.63m0-1.88a9.51 9.51 0 1 0 9.5 9.51 9.51 9.51 0 0 0-9.5-9.51zm0-47.27a8.56 8.56 0 1 1 8.56-8.56 8.57 8.57 0 0 1-8.56 8.56zM432.4 611.35a7.62 7.62 0 1 1-7.62 7.62 7.62 7.62 0 0 1 7.62-7.62m0-1.89a9.51 9.51 0 1 0 9.5 9.51 9.52 9.52 0 0 0-9.5-9.51zm0-47.26a8.57 8.57 0 1 1 8.56-8.57 8.57 8.57 0 0 1-8.56 8.57zM432.4 546.02a7.62 7.62 0 1 1-7.62 7.61 7.61 7.61 0 0 1 7.62-7.61m0-1.89a9.51 9.51 0 1 0 9.5 9.5 9.52 9.52 0 0 0-9.5-9.5zm0-47.27a8.56 8.56 0 1 1 8.56-8.56 8.57 8.57 0 0 1-8.56 8.56zM432.4 480.68a7.62 7.62 0 1 1-7.62 7.62 7.62 7.62 0 0 1 7.62-7.62m0-1.88a9.5 9.5 0 1 0 9.5 9.5 9.51 9.51 0 0 0-9.5-9.5zm0-50.47a5.37 5.37 0 1 1 5.37-5.36 5.36 5.36 0 0 1-5.37 5.36zm0-65.33a5.37 5.37 0 1 1 5.37-5.37 5.37 5.37 0 0 1-5.37 5.37zm0-65.34a5.37 5.37 0 1 1 5.37-5.36 5.36 5.36 0 0 1-5.37 5.36zm-56.58 754.55a8.57 8.57 0 1 1 8.56-8.57 8.58 8.58 0 0 1-8.56 8.57zM375.82 1036.02a7.63 7.63 0 1 1-7.63 7.62 7.62 7.62 0 0 1 7.63-7.62m0-1.88a9.51 9.51 0 1 0 9.5 9.5 9.52 9.52 0 0 0-9.5-9.5zm0-47.26a8.57 8.57 0 1 1 8.56-8.56 8.58 8.58 0 0 1-8.56 8.56zM375.82 970.69a7.63 7.63 0 1 1-7.63 7.63 7.63 7.63 0 0 1 7.63-7.63m0-1.88a9.51 9.51 0 1 0 9.5 9.51 9.52 9.52 0 0 0-9.5-9.51zm0-47.27a8.57 8.57 0 1 1 8.56-8.56 8.58 8.58 0 0 1-8.56 8.56zM375.82 905.35a7.63 7.63 0 1 1-7.63 7.63 7.63 7.63 0 0 1 7.63-7.63m0-1.88a9.51 9.51 0 1 0 9.5 9.51 9.53 9.53 0 0 0-9.5-9.51z"/><ellipse cx="375.82" cy="847.64" rx="8.56" ry="8.56"/><path d="M375.82 840.02a7.62 7.62 0 1 1-7.63 7.62 7.62 7.62 0 0 1 7.63-7.62m0-1.88a9.51 9.51 0 1 0 9.5 9.5 9.52 9.52 0 0 0-9.5-9.5z"/><ellipse cx="375.82" cy="782.31" rx="8.56" ry="8.56"/><path d="M375.82 774.69a7.62 7.62 0 1 1-7.63 7.62 7.62 7.62 0 0 1 7.63-7.62m0-1.88a9.5 9.5 0 1 0 9.5 9.5 9.52 9.52 0 0 0-9.5-9.5zm0-47.28a8.56 8.56 0 1 1 8.56-8.56 8.58 8.58 0 0 1-8.56 8.56zM375.82 709.35a7.62 7.62 0 1 1-7.63 7.62 7.62 7.62 0 0 1 7.63-7.62m0-1.88a9.51 9.51 0 1 0 9.5 9.5 9.52 9.52 0 0 0-9.5-9.5z"/><circle cx="375.82" cy="651.64" r="8.56"/><path d="M375.82 644.01a7.63 7.63 0 1 1-7.63 7.63 7.63 7.63 0 0 1 7.63-7.63m0-1.88a9.51 9.51 0 1 0 9.5 9.51 9.53 9.53 0 0 0-9.5-9.51z"/><circle cx="375.82" cy="586.3" r="8.56"/><path d="M375.82 578.68a7.63 7.63 0 1 1-7.63 7.62 7.62 7.62 0 0 1 7.63-7.62m0-1.88a9.51 9.51 0 1 0 9.5 9.5 9.52 9.52 0 0 0-9.5-9.5zm0-47.27a8.56 8.56 0 1 1 8.56-8.56 8.58 8.58 0 0 1-8.56 8.56zM375.82 513.35a7.62 7.62 0 1 1-7.63 7.62 7.62 7.62 0 0 1 7.63-7.62m0-1.88a9.5 9.5 0 1 0 9.5 9.5 9.52 9.52 0 0 0-9.5-9.5zm0-50.47a5.37 5.37 0 1 1 5.37-5.36 5.38 5.38 0 0 1-5.37 5.36zm0-65.34a5.37 5.37 0 1 1 5.37-5.36 5.37 5.37 0 0 1-5.37 5.36zm0-65.33a5.37 5.37 0 1 1 5.37-5.37 5.38 5.38 0 0 1-5.37 5.37zm0-65.34a5.36 5.36 0 1 1 5.37-5.36 5.37 5.37 0 0 1-5.37 5.36z"/><ellipse cx="545.57" cy="1010.98" rx="5.37" ry="5.36"/><ellipse cx="545.57" cy="945.64" rx="5.37" ry="5.36"/><path d="M545.56 885.68a5.37 5.37 0 1 1 5.37-5.37 5.37 5.37 0 0 1-5.37 5.37zm0-65.34a5.37 5.37 0 1 1 5.37-5.37 5.37 5.37 0 0 1-5.37 5.37zm-56.58 228.67a5.37 5.37 0 1 1 5.37-5.37 5.37 5.37 0 0 1-5.37 5.37zm0-62.13a8.57 8.57 0 1 1 8.56-8.56 8.57 8.57 0 0 1-8.56 8.56zM488.98 970.69a7.63 7.63 0 1 1-7.62 7.63 7.63 7.63 0 0 1 7.62-7.63m0-1.88a9.51 9.51 0 1 0 9.5 9.51 9.51 9.51 0 0 0-9.5-9.51zm0-47.27a8.57 8.57 0 1 1 8.56-8.56 8.57 8.57 0 0 1-8.56 8.56zM488.98 905.35a7.63 7.63 0 1 1-7.62 7.63 7.63 7.63 0 0 1 7.62-7.63m0-1.88a9.51 9.51 0 1 0 9.5 9.51 9.52 9.52 0 0 0-9.5-9.51zm0-47.27a8.56 8.56 0 1 1 8.56-8.56 8.57 8.57 0 0 1-8.56 8.56zM488.98 840.02a7.62 7.62 0 1 1-7.62 7.62 7.62 7.62 0 0 1 7.62-7.62m0-1.88a9.51 9.51 0 1 0 9.5 9.5 9.51 9.51 0 0 0-9.5-9.5zm0-47.27a8.56 8.56 0 1 1 8.56-8.56 8.57 8.57 0 0 1-8.56 8.56zM488.98 774.69a7.62 7.62 0 1 1-7.62 7.62 7.62 7.62 0 0 1 7.62-7.62m0-1.88a9.5 9.5 0 1 0 9.5 9.5 9.51 9.51 0 0 0-9.5-9.5zm0-50.47a5.37 5.37 0 1 1 5.37-5.37 5.37 5.37 0 0 1-5.37 5.37zm0-65.33a5.37 5.37 0 1 1 5.37-5.37 5.37 5.37 0 0 1-5.37 5.37zm0-65.34a5.37 5.37 0 1 1 5.37-5.37 5.37 5.37 0 0 1-5.37 5.37zm0-65.34a5.37 5.37 0 1 1 5.37-5.36 5.36 5.36 0 0 1-5.37 5.36zm0-65.33a5.37 5.37 0 1 1 5.37-5.36 5.37 5.37 0 0 1-5.37 5.36z"/><ellipse cx="658.73" cy="1010.98" rx="8.56" ry="8.56"/><path d="M658.73 1003.36a7.62 7.62 0 1 1-7.63 7.62 7.62 7.62 0 0 1 7.63-7.62m0-1.88a9.5 9.5 0 1 0 9.5 9.5 9.52 9.52 0 0 0-9.5-9.5z"/><ellipse cx="658.73" cy="945.64" rx="8.56" ry="8.56"/><path d="M658.73 938.02a7.62 7.62 0 1 1-7.63 7.62 7.62 7.62 0 0 1 7.63-7.62m0-1.88a9.5 9.5 0 1 0 9.5 9.5 9.52 9.52 0 0 0-9.5-9.5zm0-47.26a8.57 8.57 0 1 1 8.56-8.57 8.58 8.58 0 0 1-8.56 8.57zM658.73 872.69a7.63 7.63 0 1 1-7.63 7.62 7.62 7.62 0 0 1 7.63-7.62m0-1.88a9.51 9.51 0 1 0 9.5 9.5 9.52 9.52 0 0 0-9.5-9.5zm0-50.47a5.37 5.37 0 1 1 5.36-5.37 5.38 5.38 0 0 1-5.36 5.37zm0-65.34a5.36 5.36 0 1 1 5.36-5.36 5.37 5.37 0 0 1-5.36 5.36zm0-65.33a5.37 5.37 0 1 1 5.36-5.36 5.38 5.38 0 0 1-5.36 5.36zm0-65.34a5.37 5.37 0 1 1 5.36-5.36 5.37 5.37 0 0 1-5.36 5.36zm0-65.33a5.37 5.37 0 1 1 5.36-5.37 5.38 5.38 0 0 1-5.36 5.37zm-56.58 493.21a8.57 8.57 0 1 1 8.56-8.57 8.57 8.57 0 0 1-8.56 8.57zM602.15 1036.02a7.63 7.63 0 1 1-7.63 7.62 7.62 7.62 0 0 1 7.63-7.62m0-1.88a9.51 9.51 0 1 0 9.5 9.5 9.52 9.52 0 0 0-9.5-9.5zm0-47.26a8.57 8.57 0 1 1 8.56-8.56 8.57 8.57 0 0 1-8.56 8.56zM602.15 970.69a7.63 7.63 0 1 1-7.63 7.63 7.63 7.63 0 0 1 7.63-7.63m0-1.88a9.51 9.51 0 1 0 9.5 9.51 9.52 9.52 0 0 0-9.5-9.51zm0-47.27a8.57 8.57 0 1 1 8.56-8.56 8.57 8.57 0 0 1-8.56 8.56zM602.15 905.35a7.63 7.63 0 1 1-7.63 7.63 7.63 7.63 0 0 1 7.63-7.63m0-1.88a9.51 9.51 0 1 0 9.5 9.51 9.53 9.53 0 0 0-9.5-9.51zm0-47.27a8.56 8.56 0 1 1 8.56-8.56 8.57 8.57 0 0 1-8.56 8.56zM602.15 840.02a7.62 7.62 0 1 1-7.63 7.62 7.62 7.62 0 0 1 7.63-7.62m0-1.88a9.51 9.51 0 1 0 9.5 9.5 9.52 9.52 0 0 0-9.5-9.5zm0-50.47a5.36 5.36 0 1 1 5.36-5.36 5.37 5.37 0 0 1-5.36 5.36zm0-65.33a5.37 5.37 0 1 1 5.36-5.37 5.38 5.38 0 0 1-5.36 5.37zm0-65.33a5.37 5.37 0 1 1 5.36-5.37 5.38 5.38 0 0 1-5.36 5.37zm0-65.34a5.37 5.37 0 1 1 5.36-5.37 5.38 5.38 0 0 1-5.36 5.37zM92.91 1016.34a5.36 5.36 0 1 1 5.36-5.36 5.37 5.37 0 0 1-5.36 5.36zm0-65.33a5.37 5.37 0 1 1 5.36-5.37 5.38 5.38 0 0 1-5.36 5.37zm0-65.33a5.37 5.37 0 1 1 5.36-5.37 5.38 5.38 0 0 1-5.36 5.37zm0-65.34a5.37 5.37 0 1 1 5.36-5.37 5.38 5.38 0 0 1-5.36 5.37zm0-65.34a5.36 5.36 0 1 1 5.36-5.36 5.37 5.37 0 0 1-5.36 5.36zm0-65.33a5.37 5.37 0 1 1 5.36-5.36 5.38 5.38 0 0 1-5.36 5.36zm0-65.34a5.37 5.37 0 1 1 5.36-5.36 5.37 5.37 0 0 1-5.36 5.36zm0-65.33a5.37 5.37 0 1 1 5.36-5.37 5.38 5.38 0 0 1-5.36 5.37zm0-65.33a5.37 5.37 0 1 1 5.36-5.37 5.38 5.38 0 0 1-5.36 5.37zm0-65.34a5.37 5.37 0 1 1 5.36-5.36 5.37 5.37 0 0 1-5.36 5.36zm0-65.33a5.37 5.37 0 1 1 5.36-5.37 5.38 5.38 0 0 1-5.36 5.37zm0-65.34a5.37 5.37 0 1 1 5.36-5.36 5.37 5.37 0 0 1-5.36 5.36zm0-65.33a5.37 5.37 0 1 1 5.36-5.37 5.38 5.38 0 0 1-5.36 5.37zm0-65.34a5.37 5.37 0 1 1 5.36-5.36 5.37 5.37 0 0 1-5.36 5.36zm0-65.33a5.37 5.37 0 1 1 5.36-5.37 5.38 5.38 0 0 1-5.36 5.37zM36.34 591.67a5.37 5.37 0 1 1 5.36-5.37 5.38 5.38 0 0 1-5.36 5.37zm0-65.34a5.37 5.37 0 1 1 5.36-5.36 5.37 5.37 0 0 1-5.36 5.36zm0-65.33a5.37 5.37 0 1 1 5.36-5.36 5.38 5.38 0 0 1-5.36 5.36zm0-65.34a5.37 5.37 0 1 1 5.36-5.36 5.37 5.37 0 0 1-5.36 5.36zm0-65.33a5.37 5.37 0 1 1 5.36-5.37 5.38 5.38 0 0 1-5.36 5.37zm0-65.34a5.36 5.36 0 1 1 5.36-5.36 5.37 5.37 0 0 1-5.36 5.36zm0-65.33a5.37 5.37 0 1 1 5.36-5.36 5.38 5.38 0 0 1-5.36 5.36zm0-65.33a5.37 5.37 0 1 1 5.36-5.37 5.38 5.38 0 0 1-5.36 5.37zm0-65.34a5.37 5.37 0 1 1 5.36-5.37 5.38 5.38 0 0 1-5.36 5.37zm169.73 947.35a5.36 5.36 0 1 1 5.37-5.36 5.36 5.36 0 0 1-5.37 5.36zm0-65.33a5.37 5.37 0 1 1 5.37-5.37 5.37 5.37 0 0 1-5.37 5.37zm0-65.33a5.37 5.37 0 1 1 5.37-5.37 5.37 5.37 0 0 1-5.37 5.37zm0-65.34a5.37 5.37 0 1 1 5.37-5.37 5.37 5.37 0 0 1-5.37 5.37zm0-65.34a5.36 5.36 0 1 1 5.37-5.36 5.36 5.36 0 0 1-5.37 5.36zm0-62.13a8.57 8.57 0 1 1 8.57-8.56 8.57 8.57 0 0 1-8.57 8.56zM206.07 676.68a7.63 7.63 0 1 1-7.62 7.63 7.63 7.63 0 0 1 7.62-7.63m0-1.88a9.51 9.51 0 1 0 9.51 9.51 9.51 9.51 0 0 0-9.51-9.51zm0-47.27a8.56 8.56 0 1 1 8.57-8.56 8.57 8.57 0 0 1-8.57 8.56zM206.07 611.35a7.62 7.62 0 1 1-7.62 7.62 7.62 7.62 0 0 1 7.62-7.62m0-1.89a9.51 9.51 0 1 0 9.51 9.51 9.52 9.52 0 0 0-9.51-9.51zm0-50.46a5.37 5.37 0 1 1 5.37-5.37 5.37 5.37 0 0 1-5.37 5.37zm0-65.33a5.37 5.37 0 1 1 5.37-5.37 5.37 5.37 0 0 1-5.37 5.37zm0-65.34a5.37 5.37 0 1 1 5.37-5.36 5.36 5.36 0 0 1-5.37 5.36zm0-65.33a5.37 5.37 0 1 1 5.37-5.37 5.37 5.37 0 0 1-5.37 5.37zm0-65.34a5.37 5.37 0 1 1 5.37-5.36 5.36 5.36 0 0 1-5.37 5.36zm0-65.33a5.37 5.37 0 1 1 5.37-5.37 5.37 5.37 0 0 1-5.37 5.37zm0-65.34a5.37 5.37 0 1 1 5.37-5.36 5.36 5.36 0 0 1-5.37 5.36zm-56.58 882.02a5.37 5.37 0 1 1 5.37-5.37 5.38 5.38 0 0 1-5.37 5.37zm0-65.33a5.37 5.37 0 1 1 5.37-5.36 5.38 5.38 0 0 1-5.37 5.36zm0-65.34a5.37 5.37 0 1 1 5.37-5.36 5.37 5.37 0 0 1-5.37 5.36z"/><ellipse cx="149.49" cy="847.64" rx="5.37" ry="5.36"/><ellipse cx="149.49" cy="782.31" rx="5.37" ry="5.36"/><path d="M149.49 722.34a5.37 5.37 0 1 1 5.37-5.37 5.38 5.38 0 0 1-5.37 5.37z"/><circle cx="149.49" cy="651.64" r="8.56"/><path d="M149.49 644.01a7.63 7.63 0 1 1-7.62 7.63 7.64 7.64 0 0 1 7.62-7.63m0-1.88a9.51 9.51 0 1 0 9.51 9.51 9.52 9.52 0 0 0-9.51-9.51z"/><circle cx="149.49" cy="586.3" r="5.37"/><path d="M149.49 526.33a5.37 5.37 0 1 1 5.37-5.36 5.37 5.37 0 0 1-5.37 5.36zm0-65.33a5.37 5.37 0 1 1 5.37-5.36 5.38 5.38 0 0 1-5.37 5.36zm0-65.34a5.37 5.37 0 1 1 5.37-5.36 5.37 5.37 0 0 1-5.37 5.36zm0-65.33a5.37 5.37 0 1 1 5.37-5.37 5.38 5.38 0 0 1-5.37 5.37zm0-65.34a5.36 5.36 0 1 1 5.37-5.36 5.37 5.37 0 0 1-5.37 5.36zm0-65.33a5.37 5.37 0 1 1 5.37-5.36 5.38 5.38 0 0 1-5.37 5.36z"/><circle cx="149.49" cy="128.96" r="5.37"/><path d="M319.23 1016.34a5.36 5.36 0 1 1 5.37-5.36 5.37 5.37 0 0 1-5.37 5.36zm0-65.33a5.37 5.37 0 1 1 5.37-5.37 5.38 5.38 0 0 1-5.37 5.37zm0-65.33a5.37 5.37 0 1 1 5.37-5.37 5.38 5.38 0 0 1-5.37 5.37zm0-65.34a5.37 5.37 0 1 1 5.37-5.37 5.38 5.38 0 0 1-5.37 5.37zm0-62.14a8.56 8.56 0 1 1 8.57-8.56 8.58 8.58 0 0 1-8.57 8.56zM319.23 742.02a7.62 7.62 0 1 1-7.62 7.62 7.62 7.62 0 0 1 7.62-7.62m0-1.88a9.5 9.5 0 1 0 9.51 9.5 9.52 9.52 0 0 0-9.51-9.5zm0-47.27a8.57 8.57 0 1 1 8.57-8.56 8.58 8.58 0 0 1-8.57 8.56zM319.23 676.68a7.63 7.63 0 1 1-7.62 7.63 7.63 7.63 0 0 1 7.62-7.63m0-1.88a9.51 9.51 0 1 0 9.51 9.51 9.52 9.52 0 0 0-9.51-9.51zm0-47.27a8.56 8.56 0 1 1 8.57-8.56 8.58 8.58 0 0 1-8.57 8.56zM319.23 611.35a7.62 7.62 0 1 1-7.62 7.62 7.62 7.62 0 0 1 7.62-7.62m0-1.89a9.51 9.51 0 1 0 9.51 9.51 9.52 9.52 0 0 0-9.51-9.51zm0-47.26a8.57 8.57 0 1 1 8.57-8.57 8.58 8.58 0 0 1-8.57 8.57zM319.23 546.02a7.62 7.62 0 1 1-7.62 7.61 7.61 7.61 0 0 1 7.62-7.61m0-1.89a9.51 9.51 0 1 0 9.51 9.5 9.52 9.52 0 0 0-9.51-9.5zm0-50.46a5.37 5.37 0 1 1 5.37-5.37 5.38 5.38 0 0 1-5.37 5.37zm0-65.34a5.37 5.37 0 1 1 5.37-5.36 5.37 5.37 0 0 1-5.37 5.36zm0-65.33a5.37 5.37 0 1 1 5.37-5.37 5.38 5.38 0 0 1-5.37 5.37zm0-65.34a5.37 5.37 0 1 1 5.37-5.36 5.37 5.37 0 0 1-5.37 5.36zm0-65.33a5.37 5.37 0 1 1 5.37-5.37 5.38 5.38 0 0 1-5.37 5.37zm-56.58 816.68a5.37 5.37 0 1 1 5.37-5.37 5.38 5.38 0 0 1-5.37 5.37zm0-65.33a5.37 5.37 0 1 1 5.37-5.36 5.37 5.37 0 0 1-5.37 5.36zm0-65.34a5.37 5.37 0 1 1 5.37-5.36 5.37 5.37 0 0 1-5.37 5.36zm0-65.33a5.37 5.37 0 1 1 5.37-5.37 5.38 5.38 0 0 1-5.37 5.37zm0-65.34a5.36 5.36 0 1 1 5.37-5.36 5.37 5.37 0 0 1-5.37 5.36zm0-62.14a8.56 8.56 0 1 1 8.57-8.56 8.58 8.58 0 0 1-8.57 8.56zM262.66 709.35a7.62 7.62 0 1 1-7.62 7.62 7.62 7.62 0 0 1 7.62-7.62m0-1.88a9.51 9.51 0 1 0 9.5 9.5 9.52 9.52 0 0 0-9.5-9.5zm-.01-47.27a8.57 8.57 0 1 1 8.57-8.56 8.58 8.58 0 0 1-8.57 8.56zM262.66 644.01a7.63 7.63 0 1 1-7.62 7.63 7.63 7.63 0 0 1 7.62-7.63m0-1.88a9.51 9.51 0 1 0 9.5 9.51 9.53 9.53 0 0 0-9.5-9.51zm-.01-47.26a8.57 8.57 0 1 1 8.57-8.57 8.58 8.58 0 0 1-8.57 8.57zM262.66 578.68a7.63 7.63 0 1 1-7.62 7.62 7.62 7.62 0 0 1 7.62-7.62m0-1.88a9.51 9.51 0 1 0 9.5 9.5 9.52 9.52 0 0 0-9.5-9.5zm-.01-50.47a5.37 5.37 0 1 1 5.37-5.36 5.37 5.37 0 0 1-5.37 5.36zm0-65.33a5.37 5.37 0 1 1 5.37-5.36 5.37 5.37 0 0 1-5.37 5.36zm0-65.34a5.37 5.37 0 1 1 5.37-5.36 5.37 5.37 0 0 1-5.37 5.36zm0-65.33a5.37 5.37 0 1 1 5.37-5.37 5.38 5.38 0 0 1-5.37 5.37zm0-65.34a5.36 5.36 0 1 1 5.37-5.36 5.37 5.37 0 0 1-5.37 5.36zm0-65.33a5.37 5.37 0 1 1 5.37-5.36 5.37 5.37 0 0 1-5.37 5.36zm509.24 1274.02a5.36 5.36 0 1 1 5.36-5.36 5.37 5.37 0 0 1-5.36 5.36zm0-65.32a5.37 5.37 0 1 1 5.36-5.37 5.38 5.38 0 0 1-5.36 5.37zm0-65.34a5.37 5.37 0 1 1 5.36-5.37 5.38 5.38 0 0 1-5.36 5.37zm0-65.33a5.37 5.37 0 1 1 5.36-5.37 5.38 5.38 0 0 1-5.36 5.37zm0-65.34a5.37 5.37 0 1 1 5.36-5.36 5.38 5.38 0 0 1-5.36 5.36zm0-65.34a5.37 5.37 0 1 1 5.36-5.36 5.37 5.37 0 0 1-5.36 5.36zm0-65.33a5.37 5.37 0 1 1 5.36-5.36 5.38 5.38 0 0 1-5.36 5.36zm-56.55 359.34a5.37 5.37 0 1 1 5.36-5.36 5.37 5.37 0 0 1-5.36 5.36zm0-65.34a5.36 5.36 0 1 1 5.36-5.36 5.37 5.37 0 0 1-5.36 5.36zm0-65.33a5.37 5.37 0 1 1 5.36-5.36 5.38 5.38 0 0 1-5.36 5.36zm0-65.34a5.36 5.36 0 1 1 5.36-5.36 5.37 5.37 0 0 1-5.36 5.36zm0-65.32a5.37 5.37 0 1 1 5.36-5.38 5.38 5.38 0 0 1-5.36 5.38zm0-65.34a5.37 5.37 0 1 1 5.36-5.37 5.38 5.38 0 0 1-5.36 5.37zM432.4 1277.69a5.37 5.37 0 1 1 5.37-5.37 5.37 5.37 0 0 1-5.37 5.37zm0-65.34a5.37 5.37 0 1 1 5.37-5.36 5.37 5.37 0 0 1-5.37 5.36zm0-65.34a5.37 5.37 0 1 1 5.37-5.36 5.36 5.36 0 0 1-5.37 5.36zm0-65.33a5.37 5.37 0 1 1 5.37-5.36 5.37 5.37 0 0 1-5.37 5.36z"/><ellipse cx="375.82" cy="1239.65" rx="5.37" ry="5.36"/><path d="M375.82 1179.69a5.37 5.37 0 1 1 5.37-5.38 5.38 5.38 0 0 1-5.37 5.38zm0-65.34a5.37 5.37 0 1 1 5.37-5.37 5.38 5.38 0 0 1-5.37 5.37zm169.74 228.67a5.37 5.37 0 1 1 5.37-5.37 5.37 5.37 0 0 1-5.37 5.37zm0-65.33a5.37 5.37 0 1 1 5.37-5.37 5.37 5.37 0 0 1-5.37 5.37zm0-65.34a5.37 5.37 0 1 1 5.37-5.36 5.37 5.37 0 0 1-5.37 5.36zm0-65.34a5.37 5.37 0 1 1 5.37-5.36 5.36 5.36 0 0 1-5.37 5.36z"/><ellipse cx="545.57" cy="1076.31" rx="5.37" ry="5.36"/><path d="M488.98 1310.35a5.37 5.37 0 1 1 5.37-5.36 5.37 5.37 0 0 1-5.37 5.36zm0-65.34a5.36 5.36 0 1 1 5.37-5.36 5.36 5.36 0 0 1-5.37 5.36zm0-65.32a5.37 5.37 0 1 1 5.37-5.38 5.37 5.37 0 0 1-5.37 5.38zm0-65.34a5.37 5.37 0 1 1 5.37-5.37 5.37 5.37 0 0 1-5.37 5.37zm169.75 294.01a5.37 5.37 0 1 1 5.36-5.37 5.38 5.38 0 0 1-5.36 5.37zm0-65.34a5.37 5.37 0 1 1 5.36-5.37 5.38 5.38 0 0 1-5.36 5.37zm0-65.33a5.37 5.37 0 1 1 5.36-5.37 5.38 5.38 0 0 1-5.36 5.37zm0-65.34a5.37 5.37 0 1 1 5.36-5.36 5.38 5.38 0 0 1-5.36 5.36zm0-65.34a5.37 5.37 0 1 1 5.36-5.36 5.37 5.37 0 0 1-5.36 5.36z"/><ellipse cx="658.73" cy="1076.31" rx="8.56" ry="8.56"/><path d="M658.73 1068.75a7.62 7.62 0 1 1-7.63 7.62 7.61 7.61 0 0 1 7.63-7.62m0-1.89a9.51 9.51 0 1 0 9.5 9.51 9.53 9.53 0 0 0-9.5-9.51zm-56.58 308.82a5.36 5.36 0 1 1 5.36-5.36 5.37 5.37 0 0 1-5.36 5.36zm0-65.33a5.37 5.37 0 1 1 5.36-5.36 5.38 5.38 0 0 1-5.36 5.36zm0-65.34a5.36 5.36 0 1 1 5.36-5.36 5.37 5.37 0 0 1-5.36 5.36zm0-65.32a5.37 5.37 0 1 1 5.36-5.38 5.38 5.38 0 0 1-5.36 5.38zm0-62.14a8.57 8.57 0 1 1 8.56-8.57 8.58 8.58 0 0 1-8.56 8.57zM602.15 1101.36a7.63 7.63 0 1 1-7.63 7.62 7.62 7.62 0 0 1 7.63-7.62m0-1.88a9.51 9.51 0 1 0 9.5 9.5 9.52 9.52 0 0 0-9.5-9.5zM92.91 1212.35a5.37 5.37 0 1 1 5.36-5.36 5.38 5.38 0 0 1-5.36 5.36zm0-65.34a5.37 5.37 0 1 1 5.36-5.36 5.37 5.37 0 0 1-5.36 5.36zm0-65.33a5.37 5.37 0 1 1 5.36-5.36 5.38 5.38 0 0 1-5.36 5.36zm113.16 65.33a5.37 5.37 0 1 1 5.37-5.36 5.36 5.36 0 0 1-5.37 5.36zm0-65.33a5.37 5.37 0 1 1 5.37-5.36 5.37 5.37 0 0 1-5.37 5.36zm-56.58 98.01a5.37 5.37 0 1 1 5.37-5.38 5.38 5.38 0 0 1-5.37 5.38zm0-65.34a5.37 5.37 0 1 1 5.37-5.37 5.38 5.38 0 0 1-5.37 5.37zm169.74-32.67a5.37 5.37 0 1 1 5.37-5.36 5.37 5.37 0 0 1-5.37 5.36zm-56.58 32.67a5.37 5.37 0 1 1 5.37-5.37 5.38 5.38 0 0 1-5.37 5.37z"/></g></svg>